<mxfile host="65bd71144e">
    <diagram id="IDprhGrEn4-6cy8bHLo-" name="Page-1">
        <mxGraphModel dx="1385" dy="609" grid="1" gridSize="10" guides="1" tooltips="1" connect="1" arrows="1" fold="1" page="1" pageScale="1" pageWidth="100" pageHeight="100" math="0" shadow="0">
            <root>
                <mxCell id="0"/>
                <mxCell id="1" parent="0"/>
                <mxCell id="20" value="" style="rounded=1;whiteSpace=wrap;html=1;fillColor=#f5f5f5;fontColor=#333333;strokeColor=none;" vertex="1" parent="1">
                    <mxGeometry x="-100" y="130" width="160" height="730" as="geometry"/>
                </mxCell>
                <mxCell id="19" value="" style="rounded=1;whiteSpace=wrap;html=1;fillColor=#f5f5f5;fontColor=#333333;strokeColor=none;" vertex="1" parent="1">
                    <mxGeometry x="-270" y="-50" width="160" height="820" as="geometry"/>
                </mxCell>
                <mxCell id="13" style="edgeStyle=none;html=1;exitX=0.5;exitY=1;exitDx=0;exitDy=0;entryX=0.5;entryY=0;entryDx=0;entryDy=0;fontFamily=仿宋;fillColor=#fff2cc;strokeColor=#d6b656;strokeWidth=3;" edge="1" parent="1" source="2" target="3">
                    <mxGeometry relative="1" as="geometry"/>
                </mxCell>
                <mxCell id="2" value="设置保证金" style="rounded=1;whiteSpace=wrap;html=1;fontFamily=仿宋;fillColor=#fff2cc;strokeColor=#d6b656;strokeWidth=2;fontSize=15;" vertex="1" parent="1">
                    <mxGeometry x="-250" width="120" height="60" as="geometry"/>
                </mxCell>
                <mxCell id="15" style="edgeStyle=orthogonalEdgeStyle;html=1;exitX=0.5;exitY=1;exitDx=0;exitDy=0;entryX=0.5;entryY=0;entryDx=0;entryDy=0;fillColor=#fff2cc;strokeColor=#d6b656;strokeWidth=3;" edge="1" parent="1" source="3" target="6">
                    <mxGeometry relative="1" as="geometry"/>
                </mxCell>
                <mxCell id="3" value="发布项目" style="rounded=1;whiteSpace=wrap;html=1;fontFamily=仿宋;fillColor=#fff2cc;strokeColor=#d6b656;strokeWidth=2;fontSize=15;" vertex="1" parent="1">
                    <mxGeometry x="-250" y="100" width="120" height="60" as="geometry"/>
                </mxCell>
                <mxCell id="17" style="edgeStyle=orthogonalEdgeStyle;html=1;exitX=0.5;exitY=1;exitDx=0;exitDy=0;entryX=0.5;entryY=0;entryDx=0;entryDy=0;fontFamily=仿宋;fillColor=#fff2cc;strokeColor=#d6b656;strokeWidth=3;" edge="1" parent="1" source="4" target="11">
                    <mxGeometry relative="1" as="geometry"/>
                </mxCell>
                <mxCell id="4" value="选择保证金退款方式" style="whiteSpace=wrap;html=1;rounded=1;fontFamily=仿宋;fillColor=#fff2cc;strokeColor=#d6b656;strokeWidth=2;fontSize=15;" vertex="1" parent="1">
                    <mxGeometry x="-250" y="540" width="120" height="60" as="geometry"/>
                </mxCell>
                <mxCell id="8" value="" style="edgeStyle=none;html=1;fontFamily=仿宋;fillColor=#f8cecc;strokeColor=#b85450;strokeWidth=3;" edge="1" parent="1" source="6" target="7">
                    <mxGeometry relative="1" as="geometry"/>
                </mxCell>
                <mxCell id="6" value="供应商报名" style="whiteSpace=wrap;html=1;rounded=1;fontFamily=仿宋;fillColor=#f8cecc;strokeColor=#b85450;strokeWidth=2;fontSize=15;" vertex="1" parent="1">
                    <mxGeometry x="-80" y="210" width="120" height="60" as="geometry"/>
                </mxCell>
                <mxCell id="10" value="" style="edgeStyle=none;html=1;fontFamily=仿宋;fillColor=#f8cecc;strokeColor=#b85450;strokeWidth=3;" edge="1" parent="1" source="7" target="9">
                    <mxGeometry relative="1" as="geometry"/>
                </mxCell>
                <mxCell id="7" value="缴纳标书费" style="whiteSpace=wrap;html=1;rounded=1;fontFamily=仿宋;fillColor=#f8cecc;strokeColor=#b85450;strokeWidth=2;fontSize=15;" vertex="1" parent="1">
                    <mxGeometry x="-80" y="310" width="120" height="60" as="geometry"/>
                </mxCell>
                <mxCell id="16" style="edgeStyle=orthogonalEdgeStyle;html=1;exitX=0.5;exitY=1;exitDx=0;exitDy=0;entryX=0.5;entryY=0;entryDx=0;entryDy=0;fillColor=#f8cecc;strokeColor=#b85450;strokeWidth=3;" edge="1" parent="1" source="9" target="4">
                    <mxGeometry relative="1" as="geometry"/>
                </mxCell>
                <mxCell id="9" value="缴纳保证金" style="whiteSpace=wrap;html=1;rounded=1;fontFamily=仿宋;fillColor=#f8cecc;strokeColor=#b85450;strokeWidth=2;fontSize=15;" vertex="1" parent="1">
                    <mxGeometry x="-80" y="410" width="120" height="60" as="geometry"/>
                </mxCell>
                <mxCell id="18" style="edgeStyle=orthogonalEdgeStyle;html=1;exitX=0.5;exitY=1;exitDx=0;exitDy=0;entryX=0.5;entryY=0;entryDx=0;entryDy=0;fillColor=#fff2cc;strokeColor=#d6b656;strokeWidth=3;" edge="1" parent="1" source="11" target="12">
                    <mxGeometry relative="1" as="geometry"/>
                </mxCell>
                <mxCell id="11" value="发布中标结果" style="whiteSpace=wrap;html=1;rounded=1;fontFamily=仿宋;fillColor=#fff2cc;strokeColor=#d6b656;strokeWidth=2;fontSize=15;" vertex="1" parent="1">
                    <mxGeometry x="-250" y="640" width="120" height="60" as="geometry"/>
                </mxCell>
                <mxCell id="12" value="支付平台服务费" style="whiteSpace=wrap;html=1;rounded=1;fontFamily=仿宋;fillColor=#f8cecc;strokeColor=#b85450;strokeWidth=2;fontSize=15;" vertex="1" parent="1">
                    <mxGeometry x="-80" y="770" width="120" height="60" as="geometry"/>
                </mxCell>
                <mxCell id="21" value="供应商" style="text;html=1;align=center;verticalAlign=middle;resizable=0;points=[];autosize=1;strokeColor=none;fillColor=none;fontFamily=黑体;fontStyle=1;fontSize=18;" vertex="1" parent="1">
                    <mxGeometry x="-60" y="131" width="80" height="40" as="geometry"/>
                </mxCell>
                <mxCell id="22" value="采购人" style="text;html=1;align=center;verticalAlign=middle;resizable=0;points=[];autosize=1;strokeColor=none;fillColor=none;fontStyle=1;fontFamily=黑体;fontSize=18;" vertex="1" parent="1">
                    <mxGeometry x="-230" y="-49" width="80" height="40" as="geometry"/>
                </mxCell>
            </root>
        </mxGraphModel>
    </diagram>
</mxfile>